<svg id="svg" version="1.1" xmlns="http://www.w3.org/2000/svg" xmlns:xlink="http://www.w3.org/1999/xlink" width="400" height="400" viewBox="0, 0, 841.9,595.3"><g id="svgg"><path id="path0" d="M0.000 200.000 L 0.000 400.000 200.000 400.000 L 400.000 400.000 400.000 200.000 L 400.000 0.000 200.000 0.000 L 0.000 0.000 0.000 200.000 M187.659 133.271 C 188.222 133.640,189.384 134.068,190.242 134.223 C 191.099 134.378,192.027 134.685,192.305 134.905 C 192.832 135.324,194.692 136.389,196.400 137.251 C 199.641 138.887,206.400 145.852,206.400 147.556 C 206.400 147.783,206.735 148.291,207.144 148.684 C 207.553 149.078,208.017 149.940,208.175 150.600 C 208.333 151.260,208.696 152.070,208.982 152.400 C 209.268 152.730,209.619 153.810,209.762 154.800 C 209.905 155.790,210.279 157.320,210.594 158.200 C 211.356 160.336,211.380 166.794,210.632 168.584 C 210.320 169.331,209.940 170.940,209.788 172.159 C 209.635 173.379,209.261 174.583,208.955 174.837 C 208.650 175.091,208.400 175.534,208.400 175.823 C 208.400 176.501,207.771 177.927,206.894 179.236 C 206.512 179.806,205.721 180.992,205.135 181.872 C 204.550 182.752,203.773 183.770,203.410 184.133 C 202.725 184.818,202.892 185.598,203.724 185.602 C 203.986 185.604,204.679 185.855,205.264 186.160 C 205.849 186.465,207.235 186.840,208.344 186.992 C 209.453 187.145,210.561 187.512,210.808 187.809 C 211.054 188.106,211.828 188.472,212.528 188.622 C 217.466 189.685,216.666 196.800,211.608 196.800 C 210.427 196.800,209.514 196.578,209.216 196.220 C 208.951 195.900,207.897 195.514,206.874 195.360 C 205.851 195.207,204.431 194.838,203.719 194.541 C 202.748 194.135,199.860 193.998,192.113 193.994 C 179.920 193.987,180.741 194.289,180.727 189.807 C 180.715 185.707,180.631 185.799,184.662 185.459 C 186.309 185.319,188.044 184.934,188.518 184.603 C 188.991 184.271,189.640 184.000,189.960 184.000 C 190.590 184.000,196.105 180.421,196.348 179.855 C 196.430 179.665,196.835 179.220,197.248 178.866 C 197.662 178.512,198.000 178.063,198.000 177.869 C 198.000 177.674,198.450 176.981,199.000 176.327 C 199.550 175.673,200.000 174.814,200.000 174.418 C 200.000 174.022,200.261 173.481,200.580 173.216 C 200.900 172.951,201.285 171.894,201.437 170.867 C 201.589 169.840,201.958 168.302,202.257 167.450 C 202.953 165.462,202.953 161.738,202.257 159.750 C 201.958 158.898,201.588 157.349,201.434 156.309 C 201.280 155.269,200.977 154.309,200.760 154.175 C 200.543 154.041,200.084 153.227,199.740 152.366 C 199.395 151.505,198.953 150.800,198.757 150.800 C 198.560 150.800,198.400 150.585,198.400 150.322 C 198.400 149.500,192.483 144.000,191.599 144.000 C 191.146 144.000,190.673 143.735,190.549 143.411 C 190.424 143.087,189.665 142.703,188.861 142.557 C 188.058 142.412,186.860 142.002,186.200 141.647 C 185.161 141.087,183.147 141.000,171.200 141.000 L 157.400 141.000 157.298 189.322 C 157.186 242.212,157.040 239.199,159.714 239.202 C 165.628 239.210,167.964 244.537,163.145 247.028 C 161.067 248.103,150.446 247.888,149.500 246.752 C 148.841 245.960,148.800 242.664,148.800 190.032 C 148.800 131.808,148.758 133.298,150.400 132.658 C 152.025 132.024,186.626 132.593,187.659 133.271 M195.230 153.016 C 198.535 154.501,198.269 159.466,194.836 160.390 C 193.091 160.860,179.581 161.083,178.886 160.653 C 177.664 159.898,177.600 162.362,177.600 210.125 C 177.600 251.316,177.683 258.371,178.170 258.775 C 179.147 259.586,224.735 259.195,226.018 258.364 C 226.558 258.015,227.600 257.611,228.332 257.468 C 229.065 257.324,230.125 256.845,230.686 256.404 C 231.248 255.962,231.931 255.600,232.204 255.600 C 233.209 255.600,237.964 250.578,239.203 248.209 C 239.890 246.894,240.599 245.634,240.779 245.409 C 241.926 243.968,242.768 235.691,242.020 233.203 C 241.789 232.434,241.598 231.354,241.596 230.803 C 241.594 230.251,241.150 228.900,240.609 227.800 C 240.068 226.700,239.619 225.569,239.613 225.287 C 239.606 225.006,239.330 224.671,239.000 224.545 C 238.670 224.418,238.400 224.091,238.400 223.818 C 238.400 223.213,232.598 217.600,231.972 217.600 C 231.727 217.600,231.069 217.240,230.509 216.800 C 229.950 216.360,229.126 216.000,228.678 216.000 C 228.230 216.000,227.515 215.685,227.090 215.300 C 226.394 214.670,225.032 214.587,213.463 214.470 C 198.519 214.318,199.600 214.669,199.600 209.959 L 199.600 206.415 200.700 206.193 C 201.305 206.071,202.700 205.725,203.800 205.424 C 204.900 205.122,206.520 204.754,207.400 204.604 C 208.280 204.455,209.270 204.099,209.600 203.813 C 209.930 203.528,210.648 203.158,211.195 202.990 C 213.242 202.364,218.451 196.948,219.843 194.000 C 220.414 192.790,221.178 191.184,221.540 190.431 C 222.528 188.382,222.498 178.221,221.500 176.811 C 221.115 176.267,220.800 175.436,220.800 174.965 C 220.800 174.494,220.440 173.650,220.000 173.091 C 219.560 172.531,219.200 171.884,219.200 171.652 C 219.200 171.152,215.694 166.741,214.930 166.280 C 214.609 166.086,214.400 165.210,214.400 164.055 C 214.400 160.379,218.273 158.526,221.109 160.845 C 223.017 162.406,227.579 168.862,227.593 170.020 C 227.597 170.361,227.803 170.843,228.052 171.092 C 230.465 173.505,231.821 188.771,229.885 191.726 C 229.566 192.213,229.171 193.224,229.006 193.972 C 228.432 196.586,225.726 200.984,223.054 203.647 C 220.704 205.989,220.623 205.847,224.500 206.182 C 226.315 206.339,228.070 206.699,228.400 206.983 C 228.730 207.267,229.682 207.621,230.516 207.770 C 231.350 207.920,232.880 208.570,233.916 209.214 C 234.952 209.858,236.245 210.580,236.789 210.817 C 237.333 211.054,238.053 211.511,238.389 211.833 C 238.725 212.155,239.962 213.341,241.137 214.468 C 243.851 217.070,246.336 220.206,246.638 221.410 C 246.767 221.922,247.126 222.439,247.436 222.559 C 247.746 222.678,248.000 223.098,248.000 223.493 C 248.000 223.889,248.337 224.840,248.748 225.608 C 249.160 226.376,249.625 227.813,249.782 228.802 C 249.939 229.791,250.322 231.488,250.634 232.573 C 251.407 235.266,251.338 238.005,250.400 241.800 C 249.965 243.560,249.608 245.270,249.606 245.600 C 249.603 246.135,248.453 248.792,247.530 250.400 C 247.340 250.730,246.956 251.450,246.677 252.000 C 244.923 255.451,240.003 260.706,236.956 262.383 C 236.100 262.854,234.950 263.490,234.400 263.798 C 233.850 264.105,233.130 264.455,232.800 264.576 C 232.470 264.696,231.930 264.963,231.600 265.168 C 230.281 265.988,226.825 266.893,223.654 267.248 C 219.591 267.703,170.203 267.537,169.733 267.067 C 169.253 266.587,169.098 154.721,169.575 153.465 C 170.067 152.171,169.947 152.182,183.000 152.286 C 191.927 152.358,194.048 152.484,195.230 153.016 M228.442 219.863 C 230.239 221.419,230.599 222.966,229.668 225.131 C 229.190 226.241,228.800 227.509,228.800 227.951 C 228.800 228.392,228.617 228.866,228.394 229.004 C 228.171 229.142,227.711 229.827,227.372 230.527 C 225.695 233.996,223.318 237.249,221.056 239.173 C 220.427 239.708,219.649 240.408,219.327 240.730 C 218.446 241.611,216.187 243.087,215.277 243.375 C 214.835 243.516,214.254 243.894,213.987 244.215 C 213.720 244.537,213.209 244.801,212.851 244.802 C 212.493 244.804,211.660 245.101,211.000 245.463 C 207.576 247.340,186.487 248.493,183.531 246.964 C 180.784 245.544,180.041 243.156,181.714 241.125 C 183.123 239.415,184.314 239.200,192.361 239.200 C 202.465 239.200,206.544 238.574,210.668 236.391 C 214.166 234.538,219.200 229.825,219.200 228.401 C 219.200 227.947,219.465 227.473,219.789 227.349 C 220.113 227.224,220.500 226.465,220.648 225.661 C 220.796 224.858,221.251 223.573,221.659 222.806 C 222.066 222.039,222.400 221.212,222.400 220.968 C 222.400 219.145,226.704 218.358,228.442 219.863 " stroke="none" fill="#2b2b2b" fill-rule="evenodd"></path><path id="path1" d="M150.755 133.854 C 150.357 134.334,150.232 245.405,150.629 246.047 C 150.959 246.581,161.889 246.486,162.926 245.940 C 166.440 244.090,164.617 240.516,160.012 240.227 C 158.212 240.114,156.945 239.841,156.743 239.521 C 156.179 238.633,156.314 141.046,156.880 140.480 C 157.468 139.892,181.349 139.800,184.845 140.372 C 208.737 144.286,209.762 181.704,186.101 186.232 C 181.702 187.073,181.600 187.163,181.600 190.206 C 181.600 193.413,180.544 193.153,194.200 193.316 L 205.000 193.445 208.486 194.760 L 211.972 196.074 213.185 195.210 C 214.652 194.166,215.056 192.826,214.336 191.391 C 213.449 189.625,209.146 187.775,204.968 187.364 C 200.134 186.889,200.093 186.735,203.586 182.217 C 209.516 174.546,211.942 160.324,208.448 153.715 C 208.240 153.322,207.572 151.926,206.963 150.614 C 203.184 142.462,196.144 136.684,187.212 134.403 C 183.533 133.464,151.479 132.981,150.755 133.854 M170.480 154.080 C 169.912 154.648,169.780 265.034,170.346 265.927 C 170.966 266.904,223.096 266.598,227.133 265.593 C 250.908 259.676,257.700 228.668,238.562 213.424 C 234.203 209.952,228.220 207.454,222.963 206.911 C 220.179 206.624,219.434 205.835,220.831 204.653 C 232.616 194.683,232.735 173.641,221.072 162.322 C 219.146 160.453,217.791 160.340,216.275 161.922 C 214.608 163.661,215.123 165.321,218.383 168.718 C 219.848 170.243,222.345 175.685,222.991 178.760 C 225.819 192.203,216.785 204.689,202.777 206.696 L 200.600 207.008 200.480 209.768 C 200.324 213.377,199.704 213.187,211.600 213.194 C 225.573 213.202,229.499 214.114,235.008 218.628 C 249.815 230.761,243.618 256.179,225.027 259.567 C 220.409 260.409,177.854 260.144,177.062 259.269 C 176.165 258.278,176.029 161.861,176.922 160.639 C 177.393 159.995,178.295 159.918,186.080 159.862 C 195.897 159.791,196.406 159.642,196.394 156.838 C 196.380 153.680,196.037 153.600,182.506 153.600 C 174.059 153.600,170.831 153.729,170.480 154.080 M223.807 220.926 C 223.117 221.674,222.125 223.938,221.320 226.600 C 221.187 227.040,220.746 227.878,220.339 228.462 C 219.933 229.046,219.600 229.697,219.600 229.909 C 219.600 230.856,213.132 236.416,210.725 237.538 C 206.295 239.602,205.544 239.716,194.600 239.995 C 188.880 240.141,183.901 240.395,183.537 240.559 C 181.646 241.410,181.692 244.917,183.607 245.886 C 184.841 246.510,201.769 246.594,205.467 245.994 C 216.354 244.227,227.672 233.484,228.666 223.973 C 229.033 220.462,225.994 218.556,223.807 220.926 " stroke="none" fill="#d8d8d8" fill-rule="evenodd"></path><path id="path2" d="M149.843 133.833 C 149.709 134.181,149.600 159.557,149.600 190.223 L 149.600 245.982 150.590 246.630 C 152.168 247.664,161.915 247.320,163.446 246.176 C 167.150 243.408,164.663 239.609,159.143 239.602 C 157.820 239.601,157.216 239.418,157.043 238.967 C 156.491 237.528,156.776 141.318,157.334 140.855 C 157.695 140.556,162.089 140.375,170.834 140.300 L 183.800 140.189 170.580 140.094 C 160.723 140.024,157.238 140.122,156.880 140.480 C 156.314 141.046,156.179 238.633,156.743 239.521 C 156.945 239.841,158.212 240.114,160.012 240.227 C 163.527 240.448,164.400 241.046,164.400 243.233 C 164.400 246.120,163.436 246.474,156.000 246.315 L 150.600 246.200 150.400 190.800 C 150.249 148.917,150.315 135.132,150.669 134.300 C 151.045 133.419,151.034 133.200,150.612 133.200 C 150.323 133.200,149.976 133.485,149.843 133.833 M168.800 133.610 C 183.144 133.807,186.151 133.950,188.047 134.521 C 196.624 137.104,203.354 142.830,206.963 150.614 C 207.572 151.926,208.240 153.322,208.448 153.715 C 211.942 160.324,209.516 174.546,203.586 182.217 C 200.084 186.746,200.136 186.931,205.000 187.311 L 207.800 187.529 205.000 186.834 C 202.507 186.214,200.507 184.400,202.318 184.400 C 202.523 184.400,203.201 183.635,203.825 182.700 C 204.448 181.765,205.165 180.820,205.419 180.600 C 205.809 180.261,207.644 176.587,208.814 173.800 C 213.810 161.905,207.183 143.414,195.800 137.484 C 187.350 133.082,188.021 133.185,168.458 133.288 L 151.800 133.375 168.800 133.610 M184.600 140.633 C 190.410 142.134,195.585 145.511,199.036 150.055 C 203.703 156.201,204.362 166.975,200.534 174.530 C 198.527 178.491,196.952 180.338,193.743 182.499 C 192.370 183.424,191.321 184.254,191.412 184.345 C 191.793 184.726,197.100 180.659,198.260 179.097 C 207.785 166.272,204.074 148.915,190.400 142.334 C 188.530 141.434,186.280 140.637,185.400 140.562 C 184.520 140.488,184.160 140.520,184.600 140.633 M170.912 153.196 C 169.541 153.766,169.574 152.207,169.692 210.400 L 169.803 265.400 169.901 209.980 C 169.977 167.520,170.112 154.448,170.480 154.080 C 170.831 153.729,174.059 153.600,182.506 153.600 C 196.037 153.600,196.380 153.680,196.394 156.838 C 196.406 159.642,195.897 159.791,186.080 159.862 C 178.295 159.918,177.393 159.995,176.922 160.639 C 175.968 161.943,176.173 258.470,177.131 259.338 C 178.028 260.149,220.713 260.354,225.027 259.567 C 243.618 256.179,249.815 230.761,235.008 218.628 C 229.499 214.114,225.573 213.202,211.600 213.194 C 199.704 213.187,200.324 213.377,200.480 209.768 L 200.600 207.008 202.777 206.696 C 214.987 204.947,223.824 194.895,223.553 183.065 C 223.454 178.777,222.917 178.601,222.886 182.846 C 222.831 190.681,221.141 194.840,216.026 199.727 C 211.590 203.964,209.922 204.725,200.900 206.626 C 200.066 206.801,200.000 207.029,200.006 209.708 C 200.015 213.953,199.352 213.683,209.647 213.627 C 226.229 213.537,230.711 214.723,236.464 220.722 C 245.378 230.018,245.030 244.718,235.689 253.500 C 234.227 254.875,232.823 256.000,232.569 256.000 C 232.315 256.000,231.679 256.329,231.154 256.732 C 230.126 257.521,227.175 258.636,224.600 259.209 C 222.015 259.784,178.261 259.701,177.680 259.120 C 176.996 258.436,176.981 160.983,177.665 160.560 C 177.921 160.402,181.409 160.314,185.417 160.365 C 194.249 160.476,195.803 160.168,196.651 158.139 C 197.381 156.392,196.985 154.974,195.446 153.824 C 194.231 152.917,172.899 152.370,170.912 153.196 M215.875 161.522 C 214.162 163.309,214.412 164.681,217.000 167.713 C 218.210 169.131,219.200 170.471,219.200 170.691 C 219.200 170.912,219.531 171.521,219.936 172.046 C 220.341 172.571,220.902 173.630,221.184 174.400 C 221.465 175.170,221.952 176.430,222.266 177.200 L 222.837 178.600 222.618 177.251 C 222.345 175.557,219.557 169.941,218.383 168.718 C 215.101 165.298,214.574 163.549,216.322 161.875 C 219.575 158.759,226.002 165.968,228.805 175.878 C 229.291 177.595,229.745 179.180,229.813 179.400 C 229.881 179.620,229.951 179.278,229.968 178.641 C 230.026 176.537,227.705 170.777,225.070 166.483 C 221.631 160.880,218.242 159.051,215.875 161.522 M229.910 184.300 C 229.553 192.262,225.963 200.312,220.831 204.653 C 219.478 205.798,220.231 206.831,222.349 206.733 L 223.800 206.666 222.300 206.509 C 220.307 206.300,220.394 205.750,222.824 203.175 C 225.034 200.833,228.160 195.620,228.612 193.522 C 228.768 192.795,229.156 191.691,229.474 191.070 C 230.029 189.984,230.785 180.000,230.312 180.000 C 230.197 180.000,230.016 181.935,229.910 184.300 M189.000 185.000 C 188.560 185.307,186.779 185.733,185.043 185.947 C 181.318 186.407,181.214 186.523,181.206 190.253 C 181.198 193.826,180.368 193.586,192.800 193.600 C 202.713 193.610,208.579 194.419,210.153 195.993 C 211.796 197.636,216.141 194.395,215.338 192.125 C 214.700 190.325,210.498 187.572,208.450 187.613 C 208.093 187.620,208.700 187.996,209.800 188.449 C 213.014 189.770,213.768 190.260,214.336 191.391 C 215.056 192.826,214.652 194.166,213.185 195.210 L 211.972 196.074 208.486 194.760 L 205.000 193.445 194.200 193.316 C 180.459 193.152,181.535 193.429,181.682 190.088 L 181.800 187.400 183.400 186.900 C 184.280 186.625,186.011 186.212,187.247 185.982 C 189.398 185.583,191.777 184.415,190.400 184.434 C 190.070 184.438,189.440 184.693,189.000 185.000 M225.000 207.195 C 230.501 208.628,231.233 208.917,235.893 211.481 C 240.600 214.072,245.463 220.125,248.039 226.600 C 248.652 228.140,249.164 229.144,249.177 228.831 C 249.491 221.187,233.421 206.559,225.019 206.841 L 223.800 206.882 225.000 207.195 M223.714 220.366 C 223.227 220.772,222.540 221.891,222.188 222.852 C 221.201 225.544,221.104 226.373,221.985 224.600 C 222.422 223.720,222.784 222.751,222.790 222.446 C 222.807 221.522,224.770 220.000,225.945 220.000 C 228.034 220.000,228.933 221.371,228.677 224.163 L 228.452 226.600 229.042 225.000 C 230.464 221.144,226.703 217.872,223.714 220.366 M219.910 228.269 C 215.365 236.620,208.481 239.599,193.726 239.600 C 184.669 239.600,183.548 239.786,182.114 241.525 C 180.361 243.653,181.677 246.091,184.979 246.830 C 187.565 247.409,202.133 247.116,205.800 246.412 C 213.757 244.884,222.467 238.884,225.650 232.739 C 225.953 232.155,226.701 230.733,227.313 229.579 C 227.926 228.425,228.367 227.300,228.293 227.078 C 228.219 226.857,227.675 227.739,227.083 229.038 C 223.103 237.779,214.500 244.528,205.467 245.994 C 201.769 246.594,184.841 246.510,183.607 245.886 C 181.692 244.917,181.646 241.410,183.537 240.559 C 183.901 240.395,188.880 240.141,194.600 239.995 C 205.544 239.716,206.295 239.602,210.725 237.538 C 213.132 236.416,219.600 230.856,219.600 229.909 C 219.600 229.697,219.974 228.998,220.431 228.356 C 220.889 227.714,221.197 226.992,221.118 226.753 C 221.038 226.513,220.494 227.195,219.910 228.269 M249.400 236.216 C 249.400 249.012,244.397 257.445,233.400 263.183 C 227.543 266.240,228.534 266.147,199.200 266.394 L 173.000 266.614 198.938 266.707 C 224.310 266.798,224.938 266.782,227.738 265.955 C 242.981 261.453,252.614 246.688,249.881 232.016 C 249.424 229.558,249.400 229.763,249.400 236.216 M170.006 266.100 C 170.002 266.570,170.295 266.790,170.900 266.768 C 171.501 266.747,171.601 266.661,171.200 266.508 C 170.870 266.383,170.468 266.082,170.306 265.840 C 170.125 265.569,170.010 265.668,170.006 266.100 " stroke="none" fill="#949494" fill-rule="evenodd"></path><path id="path3" d="M158.927 133.100 C 163.727 133.164,171.467 133.163,176.127 133.099 C 180.787 133.036,176.860 132.983,167.400 132.983 C 157.940 132.983,154.127 133.036,158.927 133.100 M149.299 190.038 C 149.192 250.150,149.106 247.200,150.976 247.200 C 151.148 247.200,150.907 246.885,150.440 246.500 L 149.591 245.800 149.494 190.000 L 149.397 134.200 149.299 190.038 M164.100 140.699 C 167.785 140.765,173.815 140.765,177.500 140.699 C 181.185 140.633,178.170 140.579,170.800 140.579 C 163.430 140.579,160.415 140.633,164.100 140.699 M156.994 190.600 C 156.994 217.220,157.041 228.169,157.100 214.931 C 157.158 201.693,157.158 179.913,157.100 166.531 C 157.042 153.149,156.994 163.980,156.994 190.600 M194.800 145.725 C 194.800 145.794,195.385 146.379,196.100 147.025 L 197.400 148.200 196.225 146.900 C 195.130 145.688,194.800 145.416,194.800 145.725 M169.992 153.410 C 169.714 153.745,169.602 154.135,169.743 154.276 C 169.884 154.418,170.000 154.318,170.000 154.054 C 170.000 153.790,170.405 153.411,170.900 153.212 C 171.509 152.968,171.590 152.843,171.149 152.825 C 170.791 152.811,170.270 153.074,169.992 153.410 M210.544 163.600 C 210.544 165.690,210.612 166.545,210.694 165.500 C 210.776 164.455,210.776 162.745,210.694 161.700 C 210.612 160.655,210.544 161.510,210.544 163.600 M217.700 160.276 C 218.085 160.376,218.715 160.376,219.100 160.276 C 219.485 160.175,219.170 160.093,218.400 160.093 C 217.630 160.093,217.315 160.175,217.700 160.276 M202.110 185.196 C 202.168 185.838,202.484 186.242,203.000 186.332 C 203.724 186.459,203.738 186.421,203.146 185.936 C 202.786 185.641,202.386 185.130,202.257 184.800 C 202.127 184.470,202.061 184.648,202.110 185.196 M180.931 190.200 C 180.933 191.740,181.005 192.321,181.092 191.491 C 181.179 190.661,181.177 189.401,181.089 188.691 C 181.000 187.981,180.929 188.660,180.931 190.200 M224.100 206.676 C 224.485 206.776,225.115 206.776,225.500 206.676 C 225.885 206.575,225.570 206.493,224.800 206.493 C 224.030 206.493,223.715 206.575,224.100 206.676 M199.731 209.800 C 199.733 211.340,199.805 211.921,199.892 211.091 C 199.979 210.261,199.977 209.001,199.889 208.291 C 199.800 207.581,199.729 208.260,199.731 209.800 M200.100 213.200 C 200.191 213.538,200.771 213.828,201.431 213.863 C 202.438 213.918,202.461 213.899,201.600 213.723 C 201.050 213.611,200.451 213.312,200.270 213.060 C 200.049 212.752,199.993 212.799,200.100 213.200 M207.278 213.898 C 209.631 213.969,213.591 213.969,216.078 213.899 C 218.565 213.829,216.640 213.771,211.800 213.770 C 206.960 213.770,204.925 213.828,207.278 213.898 M248.028 225.400 C 248.028 225.620,248.286 226.250,248.600 226.800 C 248.914 227.350,249.172 227.620,249.172 227.400 C 249.172 227.180,248.914 226.550,248.600 226.000 C 248.286 225.450,248.028 225.180,248.028 225.400 M242.914 236.600 C 242.917 237.700,242.995 238.103,243.087 237.495 C 243.179 236.886,243.177 235.986,243.082 235.495 C 242.987 235.003,242.911 235.500,242.914 236.600 M250.520 236.800 C 250.520 238.010,250.595 238.505,250.687 237.900 C 250.778 237.295,250.778 236.305,250.687 235.700 C 250.595 235.095,250.520 235.590,250.520 236.800 M201.105 247.083 C 201.602 247.179,202.322 247.175,202.705 247.075 C 203.087 246.975,202.680 246.896,201.800 246.901 C 200.920 246.905,200.607 246.987,201.105 247.083 M241.381 258.100 L 239.800 259.800 241.500 258.219 C 243.081 256.748,243.384 256.400,243.081 256.400 C 243.016 256.400,242.251 257.165,241.381 258.100 M189.300 259.500 C 195.625 259.562,205.975 259.562,212.300 259.500 C 218.625 259.438,213.450 259.387,200.800 259.387 C 188.150 259.387,182.975 259.438,189.300 259.500 M185.300 267.100 C 192.505 267.161,204.295 267.161,211.500 267.100 C 218.705 267.039,212.810 266.989,198.400 266.989 C 183.990 266.989,178.095 267.039,185.300 267.100 " stroke="none" fill="#747474" fill-rule="evenodd"></path><path id="path4" d="M158.700 132.700 C 163.155 132.764,170.445 132.764,174.900 132.700 C 179.355 132.635,175.710 132.582,166.800 132.582 C 157.890 132.582,154.245 132.635,158.700 132.700 M149.214 133.574 C 148.386 135.121,148.666 245.750,149.500 246.752 C 150.978 248.526,163.427 247.898,164.607 245.989 C 164.748 245.760,164.265 245.938,163.532 246.385 C 161.608 247.558,150.904 247.620,149.858 246.464 C 148.889 245.394,149.029 133.805,150.000 133.192 C 150.375 132.955,150.418 132.810,150.114 132.806 C 149.847 132.803,149.442 133.148,149.214 133.574 M185.600 133.192 C 186.370 133.357,187.360 133.621,187.800 133.779 C 188.589 134.061,188.589 134.056,187.824 133.433 C 187.396 133.085,186.406 132.821,185.624 132.846 L 184.200 132.892 185.600 133.192 M191.424 134.987 C 192.439 135.756,193.034 135.763,192.400 135.000 C 192.126 134.670,191.620 134.400,191.275 134.400 C 190.772 134.400,190.802 134.517,191.424 134.987 M198.664 139.145 C 201.019 141.025,203.874 144.045,205.324 146.193 C 205.916 147.069,206.400 147.641,206.400 147.465 C 206.400 146.043,198.375 137.600,197.023 137.600 C 196.861 137.600,197.599 138.295,198.664 139.145 M184.200 141.172 C 185.080 141.321,186.193 141.659,186.674 141.922 C 187.154 142.185,187.784 142.396,188.074 142.391 C 188.363 142.386,187.815 142.026,186.856 141.591 C 185.897 141.156,184.547 140.823,183.856 140.850 C 182.710 140.896,182.740 140.924,184.200 141.172 M190.400 143.209 C 190.400 143.438,190.678 143.732,191.017 143.862 C 191.955 144.222,192.066 143.833,191.182 143.281 C 190.687 142.972,190.400 142.946,190.400 143.209 M194.766 146.302 C 198.235 149.750,199.009 150.176,195.811 146.877 C 194.277 145.295,192.893 144.000,192.735 144.000 C 192.578 144.000,193.492 145.036,194.766 146.302 M207.281 149.582 C 207.833 150.466,208.222 150.355,207.862 149.417 C 207.732 149.078,207.438 148.800,207.209 148.800 C 206.946 148.800,206.972 149.087,207.281 149.582 M198.413 150.300 C 198.406 150.575,198.552 150.800,198.739 150.800 C 198.925 150.800,199.273 151.205,199.512 151.700 C 199.751 152.195,199.958 152.395,199.973 152.144 C 199.988 151.894,199.646 151.264,199.213 150.744 C 198.781 150.225,198.421 150.025,198.413 150.300 M171.009 152.400 C 170.380 152.510,169.784 152.870,169.683 153.200 C 169.535 153.684,169.602 153.704,170.030 153.300 C 171.041 152.346,193.886 152.611,195.500 153.596 C 196.215 154.032,196.800 154.238,196.800 154.055 C 196.800 152.638,176.934 151.364,171.009 152.400 M208.904 153.159 C 209.245 154.070,209.443 154.268,209.538 153.794 C 209.615 153.415,209.391 152.820,209.042 152.471 C 208.463 151.891,208.451 151.951,208.904 153.159 M169.395 210.000 C 169.395 240.910,169.442 253.555,169.500 238.100 C 169.558 222.645,169.558 197.355,169.500 181.900 C 169.442 166.445,169.395 179.090,169.395 210.000 M197.246 156.481 C 197.174 158.165,196.383 159.536,195.242 159.954 C 194.552 160.208,194.436 160.347,194.900 160.368 C 196.363 160.434,197.929 157.864,197.482 156.132 C 197.354 155.635,197.278 155.747,197.246 156.481 M201.657 157.200 C 201.661 158.296,202.724 161.371,202.763 160.400 C 202.777 160.070,202.533 158.990,202.221 158.000 C 201.832 156.768,201.655 156.515,201.657 157.200 M210.283 158.400 C 210.677 160.138,210.699 166.979,210.317 168.600 C 210.054 169.712,210.079 169.698,210.657 168.403 C 211.417 166.703,211.282 159.086,210.470 157.800 C 210.031 157.104,210.006 157.182,210.283 158.400 M215.431 161.168 C 214.815 161.810,214.408 162.575,214.524 162.868 C 214.673 163.239,214.746 163.199,214.768 162.736 C 214.786 162.370,215.354 161.605,216.031 161.036 C 216.708 160.466,217.101 160.000,216.906 160.000 C 216.710 160.000,216.046 160.526,215.431 161.168 M221.761 162.100 C 222.882 163.255,224.213 164.740,224.719 165.400 C 225.224 166.060,225.511 166.330,225.357 166.000 C 224.938 165.105,222.343 161.929,221.200 160.914 C 219.371 159.288,219.694 159.971,221.761 162.100 M178.932 160.665 C 179.236 160.970,193.623 160.910,193.931 160.603 C 194.042 160.491,190.653 160.400,186.400 160.400 C 182.147 160.400,178.786 160.519,178.932 160.665 M202.924 163.400 C 202.926 164.720,203.001 165.212,203.090 164.493 C 203.179 163.774,203.177 162.694,203.086 162.093 C 202.995 161.492,202.922 162.080,202.924 163.400 M177.298 209.867 C 177.203 256.709,177.243 259.200,178.092 259.200 C 178.346 259.200,178.331 258.999,178.051 258.661 C 177.728 258.272,177.575 244.742,177.500 209.961 L 177.397 161.800 177.298 209.867 M214.413 165.233 C 214.420 165.545,215.169 166.520,216.077 167.400 L 217.727 169.000 216.178 167.000 C 215.325 165.900,214.577 164.925,214.514 164.833 C 214.451 164.742,214.406 164.922,214.413 165.233 M202.081 167.888 C 201.816 168.771,201.616 169.832,201.636 170.246 C 201.655 170.661,201.922 170.100,202.228 169.000 C 202.896 166.595,202.765 165.604,202.081 167.888 M225.600 167.099 C 225.600 167.348,225.798 167.675,226.040 167.824 C 226.281 167.974,226.724 168.659,227.024 169.348 C 227.324 170.037,227.576 170.320,227.584 169.978 C 227.593 169.635,227.150 168.745,226.600 168.000 C 226.050 167.255,225.600 166.849,225.600 167.099 M219.213 171.737 C 219.206 171.922,219.560 172.531,220.000 173.091 C 220.440 173.650,220.800 173.924,220.800 173.698 C 220.800 173.200,219.232 171.261,219.213 171.737 M200.411 173.387 C 200.143 173.709,199.993 174.180,200.077 174.432 C 200.161 174.684,200.445 174.420,200.707 173.845 C 201.240 172.674,201.137 172.512,200.411 173.387 M208.904 174.041 C 208.451 175.249,208.463 175.309,209.042 174.729 C 209.391 174.380,209.615 173.785,209.538 173.406 C 209.443 172.932,209.245 173.130,208.904 174.041 M228.809 173.526 C 228.804 173.816,229.011 174.446,229.269 174.926 C 229.528 175.407,229.869 176.340,230.029 177.000 C 230.239 177.874,230.329 177.967,230.359 177.344 C 230.382 176.873,230.044 175.703,229.609 174.744 C 229.174 173.785,228.814 173.237,228.809 173.526 M220.814 175.224 C 220.806 175.566,221.064 176.196,221.387 176.624 C 222.139 177.618,222.148 176.909,221.400 175.600 C 221.034 174.959,220.823 174.824,220.814 175.224 M207.513 177.270 C 207.014 178.437,206.977 178.751,207.374 178.421 C 207.887 177.996,208.584 176.050,208.319 175.785 C 208.252 175.719,207.890 176.387,207.513 177.270 M197.064 178.993 C 196.738 179.319,196.410 179.724,196.336 179.893 C 196.261 180.062,195.390 180.735,194.400 181.388 C 191.701 183.170,190.648 184.000,191.085 184.000 C 191.301 184.000,191.887 183.645,192.386 183.212 C 192.886 182.778,193.634 182.316,194.048 182.185 C 194.461 182.054,194.800 181.790,194.800 181.600 C 194.800 181.410,195.127 181.150,195.528 181.023 C 195.928 180.896,196.653 180.254,197.140 179.596 C 198.082 178.322,198.043 178.014,197.064 178.993 M230.553 183.400 C 230.553 186.040,230.618 187.068,230.697 185.684 C 230.775 184.301,230.774 182.141,230.695 180.884 C 230.616 179.628,230.552 180.760,230.553 183.400 M205.600 180.672 C 205.050 181.442,204.105 182.664,203.500 183.388 C 202.219 184.923,202.138 185.437,203.100 185.931 C 204.260 186.525,206.091 186.872,205.829 186.447 C 205.698 186.235,205.055 185.944,204.400 185.800 C 202.737 185.435,202.601 184.979,203.779 183.709 C 204.341 183.103,204.800 182.485,204.800 182.335 C 204.800 182.184,205.272 181.500,205.850 180.814 C 206.427 180.128,206.832 179.500,206.750 179.420 C 206.667 179.339,206.150 179.903,205.600 180.672 M222.537 183.400 C 222.539 185.160,222.609 185.830,222.693 184.889 C 222.778 183.949,222.777 182.509,222.691 181.689 C 222.605 180.870,222.536 181.640,222.537 183.400 M188.576 184.587 C 187.566 185.351,188.004 185.359,189.454 184.602 C 190.084 184.274,190.319 184.004,189.976 184.002 C 189.634 184.001,189.004 184.264,188.576 184.587 M181.300 185.865 C 181.025 185.976,180.821 186.457,180.846 186.933 C 180.883 187.609,180.933 187.646,181.076 187.100 C 181.176 186.715,181.650 186.317,182.129 186.216 C 182.608 186.114,183.360 185.955,183.800 185.862 C 184.240 185.769,183.970 185.686,183.200 185.678 C 182.430 185.670,181.575 185.754,181.300 185.865 M222.047 188.600 C 222.007 189.260,221.710 190.149,221.387 190.576 C 221.064 191.004,220.800 191.631,220.800 191.971 C 220.800 192.310,221.170 191.897,221.623 191.053 C 222.083 190.195,222.374 189.052,222.283 188.459 C 222.126 187.437,222.117 187.442,222.047 188.600 M214.240 190.160 C 216.205 192.125,215.780 194.825,213.295 196.174 C 212.583 196.560,212.430 196.774,212.859 196.784 C 213.916 196.810,216.000 194.144,216.000 192.765 C 216.000 191.512,214.181 188.800,213.340 188.800 C 213.087 188.800,213.492 189.412,214.240 190.160 M230.054 190.020 C 230.025 190.581,229.787 191.253,229.527 191.513 C 229.266 191.774,229.162 192.095,229.294 192.228 C 229.699 192.632,230.461 190.816,230.280 189.879 C 230.127 189.093,230.103 189.108,230.054 190.020 M180.800 193.112 C 180.800 193.925,182.318 194.029,192.400 193.905 L 202.200 193.785 191.980 193.693 C 184.673 193.626,181.623 193.463,181.280 193.120 C 180.915 192.755,180.800 192.753,180.800 193.112 M219.879 193.974 C 218.904 195.625,219.053 196.051,220.057 194.483 C 220.520 193.759,220.823 193.090,220.729 192.996 C 220.635 192.902,220.252 193.342,219.879 193.974 M203.946 194.616 C 204.686 194.937,205.676 195.188,206.146 195.173 C 206.626 195.158,206.212 194.898,205.200 194.579 C 202.880 193.848,202.222 193.867,203.946 194.616 M228.069 195.513 C 227.131 197.434,227.102 197.834,227.998 196.506 C 228.478 195.795,228.810 195.035,228.735 194.819 C 228.661 194.603,228.361 194.915,228.069 195.513 M207.871 195.478 C 208.350 195.572,208.957 195.907,209.220 196.224 C 209.483 196.541,210.078 196.800,210.543 196.800 C 211.187 196.800,211.033 196.610,209.896 196.000 C 209.075 195.560,208.087 195.225,207.701 195.254 C 207.209 195.293,207.259 195.359,207.871 195.478 M216.962 198.100 C 214.603 200.581,212.459 202.493,211.610 202.872 C 211.077 203.110,211.075 203.146,211.600 203.163 C 212.177 203.182,216.443 199.376,218.396 197.100 C 219.993 195.238,219.069 195.882,216.962 198.100 M226.112 199.218 C 225.721 199.947,224.680 201.365,223.800 202.369 C 222.920 203.374,222.559 203.926,222.997 203.598 C 224.422 202.530,227.402 198.469,227.032 198.099 C 226.918 197.985,226.504 198.488,226.112 199.218 M204.000 205.400 C 202.133 206.119,202.939 206.133,205.200 205.421 C 206.190 205.109,206.640 204.855,206.200 204.857 C 205.760 204.859,204.770 205.103,204.000 205.400 M220.978 205.235 C 220.499 206.010,221.451 206.455,223.246 206.296 L 225.000 206.140 223.057 206.070 C 221.511 206.014,221.161 205.877,221.345 205.400 C 221.611 204.705,221.373 204.597,220.978 205.235 M200.100 206.265 C 199.825 206.376,199.600 206.654,199.600 206.882 C 199.600 207.165,199.760 207.168,200.100 206.892 C 200.375 206.669,200.960 206.398,201.400 206.289 L 202.200 206.093 201.400 206.078 C 200.960 206.070,200.375 206.154,200.100 206.265 M226.869 206.791 C 227.456 206.969,228.176 207.258,228.469 207.434 C 228.889 207.687,228.885 207.612,228.451 207.077 C 228.149 206.705,227.429 206.415,226.851 206.434 L 225.800 206.469 226.869 206.791 M231.233 208.136 C 231.814 208.609,235.961 210.661,235.796 210.393 C 235.522 209.951,232.007 208.000,231.483 208.000 C 231.254 208.000,231.142 208.061,231.233 208.136 M237.669 211.869 C 238.401 212.456,240.345 214.211,241.989 215.769 C 243.634 217.326,244.534 218.080,243.989 217.445 C 241.695 214.766,237.365 210.800,236.735 210.800 C 236.517 210.800,236.937 211.281,237.669 211.869 M199.625 212.851 C 199.568 214.317,200.400 214.416,211.849 214.300 L 223.000 214.187 211.687 214.093 L 200.374 214.000 200.012 213.100 C 199.768 212.491,199.643 212.410,199.625 212.851 M227.271 215.442 C 227.620 215.791,228.215 216.015,228.594 215.938 C 229.068 215.843,228.870 215.645,227.959 215.304 C 226.751 214.851,226.691 214.863,227.271 215.442 M230.509 216.800 C 231.069 217.240,231.678 217.596,231.863 217.591 C 232.300 217.580,230.313 216.021,229.846 216.009 C 229.651 216.004,229.950 216.360,230.509 216.800 M233.093 218.250 C 237.114 222.054,238.431 223.222,237.591 222.240 C 236.302 220.731,233.227 217.842,232.706 217.650 C 232.483 217.568,232.657 217.838,233.093 218.250 M245.654 220.325 C 246.167 221.217,246.648 221.885,246.723 221.810 C 246.934 221.599,245.660 219.284,245.163 218.977 C 244.920 218.827,245.141 219.433,245.654 220.325 M222.998 220.002 C 221.934 221.178,222.419 221.287,223.722 220.166 C 224.374 219.605,224.610 219.200,224.284 219.200 C 223.976 219.200,223.397 219.561,222.998 220.002 M227.564 219.706 C 229.302 220.597,230.156 222.853,229.420 224.613 C 229.079 225.429,228.804 226.301,228.809 226.549 C 228.821 227.155,230.400 223.648,230.400 223.016 C 230.400 222.130,228.015 219.200,227.297 219.206 C 226.774 219.210,226.841 219.335,227.564 219.706 M247.281 223.182 C 247.833 224.066,248.222 223.955,247.862 223.017 C 247.732 222.678,247.438 222.400,247.209 222.400 C 246.946 222.400,246.972 222.687,247.281 223.182 M221.232 223.539 C 220.995 223.984,220.807 224.674,220.816 225.074 C 220.825 225.508,221.068 225.254,221.422 224.439 C 222.070 222.945,221.923 222.248,221.232 223.539 M248.724 226.200 C 248.926 226.640,249.192 227.270,249.314 227.600 C 249.507 228.118,249.541 228.115,249.568 227.576 C 249.586 227.234,249.320 226.604,248.978 226.176 C 248.366 225.412,248.362 225.413,248.724 226.200 M240.003 226.415 C 240.001 226.534,240.360 227.337,240.800 228.200 C 241.240 229.063,241.599 229.506,241.597 229.185 C 241.596 228.863,241.237 228.060,240.800 227.400 C 240.363 226.740,240.004 226.297,240.003 226.415 M219.338 227.817 C 218.978 228.755,219.367 228.866,219.919 227.982 C 220.228 227.487,220.254 227.200,219.991 227.200 C 219.762 227.200,219.468 227.478,219.338 227.817 M228.056 228.655 C 227.576 229.727,227.586 229.758,228.218 229.139 C 228.589 228.776,228.820 228.260,228.731 227.994 C 228.642 227.727,228.339 228.025,228.056 228.655 M216.400 232.061 C 214.426 234.123,212.942 235.214,210.239 236.589 C 208.280 237.585,206.886 238.400,207.141 238.400 C 209.233 238.400,220.197 230.279,219.178 229.484 C 219.080 229.407,217.830 230.567,216.400 232.061 M241.653 231.000 C 241.642 231.440,241.881 232.790,242.183 234.000 C 242.487 235.217,242.744 235.753,242.758 235.200 C 242.773 234.650,242.534 233.300,242.228 232.200 C 241.922 231.100,241.663 230.560,241.653 231.000 M250.329 232.800 C 250.686 235.171,250.673 238.566,250.298 240.800 C 250.052 242.273,250.076 242.419,250.433 241.600 C 251.191 239.864,251.320 234.795,250.657 232.800 L 250.059 231.000 250.329 232.800 M221.284 238.419 C 219.900 239.734,218.038 241.271,217.146 241.834 C 216.254 242.397,215.610 242.944,215.715 243.049 C 215.922 243.256,218.378 241.679,219.327 240.730 C 219.649 240.408,220.427 239.697,221.056 239.148 C 222.334 238.034,224.232 235.992,223.970 236.014 C 223.876 236.022,222.668 237.104,221.284 238.419 M242.302 238.400 C 242.138 239.610,241.911 241.140,241.797 241.800 C 241.683 242.460,241.872 242.130,242.217 241.066 C 242.562 240.002,242.789 238.472,242.722 237.666 C 242.613 236.351,242.569 236.427,242.302 238.400 M157.268 238.600 C 157.389 239.290,157.737 239.405,159.804 239.439 C 161.893 239.474,161.944 239.459,160.200 239.322 C 158.938 239.223,158.002 238.913,157.664 238.483 C 157.170 237.853,157.139 237.862,157.268 238.600 M203.434 238.700 C 203.269 238.865,198.874 239.101,193.667 239.225 L 184.200 239.451 192.800 239.508 C 198.773 239.548,202.133 239.400,203.800 239.024 C 205.539 238.631,205.860 238.471,204.967 238.441 C 204.288 238.418,203.598 238.535,203.434 238.700 M163.260 240.051 C 164.304 240.434,165.005 241.638,165.327 243.600 C 165.484 244.555,165.494 244.549,165.546 243.480 C 165.644 241.452,164.205 239.528,162.667 239.632 C 162.410 239.649,162.677 239.838,163.260 240.051 M181.675 241.184 C 180.083 243.337,180.782 245.543,183.504 246.950 C 184.840 247.641,202.837 247.945,203.863 247.294 C 204.118 247.132,200.084 247.057,194.899 247.127 C 184.457 247.268,184.182 247.238,182.431 245.765 C 181.176 244.709,180.684 242.366,181.598 241.801 C 182.003 241.551,182.943 240.000,182.689 240.000 C 182.613 240.000,182.157 240.533,181.675 241.184 M213.400 244.027 C 212.740 244.450,212.442 244.797,212.737 244.798 C 213.032 244.799,213.731 244.440,214.291 244.000 C 215.574 242.991,214.990 243.008,213.400 244.027 M209.780 245.561 C 209.571 245.760,209.040 246.009,208.600 246.115 C 207.820 246.303,207.820 246.308,208.624 246.354 C 209.076 246.379,209.796 246.136,210.224 245.813 C 210.651 245.490,210.811 245.220,210.580 245.213 C 210.349 245.206,209.989 245.363,209.780 245.561 M240.615 245.576 C 240.487 245.782,239.834 246.997,239.163 248.276 C 238.493 249.554,237.372 251.149,236.672 251.819 C 235.972 252.490,235.139 253.390,234.821 253.819 C 234.503 254.249,235.141 253.743,236.239 252.696 C 237.916 251.097,241.702 245.200,241.052 245.200 C 240.939 245.200,240.743 245.369,240.615 245.576 M248.802 246.642 C 247.876 249.056,247.875 249.086,248.786 247.656 C 249.256 246.917,249.587 246.036,249.521 245.698 C 249.454 245.360,249.131 245.784,248.802 246.642 M205.300 246.676 C 205.685 246.776,206.315 246.776,206.700 246.676 C 207.085 246.575,206.770 246.493,206.000 246.493 C 205.230 246.493,204.915 246.575,205.300 246.676 M247.632 249.651 C 247.614 250.009,247.330 250.526,247.000 250.800 C 246.670 251.074,246.400 251.480,246.400 251.703 C 246.400 251.926,246.774 251.632,247.232 251.050 C 247.690 250.468,247.974 249.769,247.864 249.496 C 247.738 249.185,247.651 249.242,247.632 249.651 M244.962 254.060 C 243.850 255.821,239.976 259.849,237.796 261.511 C 236.821 262.254,236.782 262.336,237.586 261.951 C 239.722 260.930,246.874 253.140,246.249 252.515 C 246.144 252.410,245.565 253.105,244.962 254.060 M233.396 254.806 C 233.258 255.029,232.573 255.484,231.873 255.817 C 229.543 256.923,228.559 257.588,229.239 257.594 C 229.590 257.597,230.293 257.240,230.800 256.800 C 231.307 256.360,231.937 256.000,232.199 256.000 C 232.461 256.000,233.002 255.640,233.400 255.200 C 233.798 254.760,234.017 254.400,233.886 254.400 C 233.754 254.400,233.534 254.583,233.396 254.806 M226.478 258.082 C 226.213 258.347,225.142 258.683,224.098 258.828 C 222.357 259.071,222.321 259.098,223.656 259.147 C 224.457 259.176,225.897 258.844,226.856 258.409 C 227.974 257.901,228.306 257.614,227.780 257.609 C 227.329 257.604,226.743 257.817,226.478 258.082 M235.376 262.840 C 235.226 263.081,234.541 263.524,233.852 263.824 C 233.163 264.124,232.880 264.376,233.222 264.384 C 233.565 264.393,234.455 263.950,235.200 263.400 C 235.945 262.850,236.351 262.400,236.101 262.400 C 235.852 262.400,235.525 262.598,235.376 262.840 M227.471 266.262 C 227.327 266.406,226.532 266.656,225.704 266.816 C 224.332 267.082,224.305 267.111,225.400 267.140 C 226.060 267.157,227.050 266.914,227.600 266.600 C 228.150 266.286,228.405 266.022,228.167 266.014 C 227.928 266.006,227.615 266.118,227.471 266.262 M183.900 267.500 C 190.995 267.561,202.605 267.561,209.700 267.500 C 216.795 267.439,210.990 267.389,196.800 267.389 C 182.610 267.389,176.805 267.439,183.900 267.500 " stroke="none" fill="#686868" fill-rule="evenodd"></path></g></svg>